<svg width="50" height="48" viewBox="0 0 50 48" fill="none" xmlns="http://www.w3.org/2000/svg">
<path fill-rule="evenodd" clip-rule="evenodd" d="M44.2661 22.1414C42.9944 28.1286 43.2703 33.847 43.2854 39.8789C43.2886 41.0568 44.2425 42.0062 45.4152 42.0047C46.5886 42.0032 47.5377 41.0436 47.5353 39.8656C47.5208 34.146 47.2156 28.7124 48.4223 23.0253C48.6667 21.875 47.933 20.7413 46.7859 20.5007C45.6394 20.253 44.5098 20.9911 44.2661 22.1414Z" fill="#1C2B32"/>
<path fill-rule="evenodd" clip-rule="evenodd" d="M31.5079 11.0184C21.8956 20.3911 12.9371 32.3407 6.78968 44.3152C6.25364 45.3611 6.66479 46.647 7.70772 47.1818C8.75064 47.7167 10.0331 47.3072 10.5691 46.2613C16.5136 34.6835 25.1776 23.1264 34.4725 14.0688C35.3125 13.2475 35.3302 11.8985 34.5122 11.0585C33.6942 10.2185 32.3479 10.1971 31.5079 11.0184Z" fill="#1C2B32"/>
<path fill-rule="evenodd" clip-rule="evenodd" d="M28.6885 1.20006C19.5887 -0.0105232 10.3383 2.8359 2.2205 6.70408C1.16158 7.21294 0.711252 8.48324 1.21434 9.539C1.71836 10.6018 2.9875 11.0515 4.04664 10.5498C11.4396 7.02379 19.8413 4.31762 28.1292 5.41895C29.292 5.57391 30.3609 4.75249 30.5149 3.59085C30.6696 2.4292 29.8506 1.35504 28.6885 1.20006Z" fill="#1C2B32"/>
</svg>
