<svg width="84" height="71" viewBox="0 0 84 71" fill="none" xmlns="http://www.w3.org/2000/svg">
<mask id="path-1-inside-1_105_4542" fill="white">
<path d="M75.2845 0.0600535C78.6173 4.94108 80.9553 10.4343 82.1648 16.226C83.3743 22.0178 83.4318 27.9946 82.3339 33.8153C81.236 39.636 79.0042 45.1866 75.766 50.1501C72.5278 55.1136 68.3466 59.3929 63.461 62.7436C58.5755 66.0943 53.0814 68.4507 47.2923 69.6785C41.5033 70.9062 35.5327 70.9812 29.7214 69.8991C23.9101 68.8169 18.372 66.599 13.4233 63.3717C8.47451 60.1445 4.21203 55.9712 0.879188 51.0902L17.6835 39.5651C19.5109 42.2414 21.848 44.5297 24.5614 46.2992C27.2749 48.0687 30.3114 49.2848 33.4978 49.8781C36.6841 50.4715 39.9578 50.4304 43.132 49.7572C46.3062 49.084 49.3186 47.7919 51.9974 45.9547C54.6761 44.1175 56.9687 41.7712 58.7442 39.0497C60.5198 36.3282 61.7434 33.2848 62.3454 30.0932C62.9474 26.9017 62.9159 23.6246 62.2527 20.449C61.5895 17.2733 60.3076 14.2614 58.4802 11.5851L75.2845 0.0600535Z"/>
</mask>
<path d="M75.2845 0.0600535C78.6173 4.94108 80.9553 10.4343 82.1648 16.226C83.3743 22.0178 83.4318 27.9946 82.3339 33.8153C81.236 39.636 79.0042 45.1866 75.766 50.1501C72.5278 55.1136 68.3466 59.3929 63.461 62.7436C58.5755 66.0943 53.0814 68.4507 47.2923 69.6785C41.5033 70.9062 35.5327 70.9812 29.7214 69.8991C23.9101 68.8169 18.372 66.599 13.4233 63.3717C8.47451 60.1445 4.21203 55.9712 0.879188 51.0902L17.6835 39.5651C19.5109 42.2414 21.848 44.5297 24.5614 46.2992C27.2749 48.0687 30.3114 49.2848 33.4978 49.8781C36.6841 50.4715 39.9578 50.4304 43.132 49.7572C46.3062 49.084 49.3186 47.7919 51.9974 45.9547C54.6761 44.1175 56.9687 41.7712 58.7442 39.0497C60.5198 36.3282 61.7434 33.2848 62.3454 30.0932C62.9474 26.9017 62.9159 23.6246 62.2527 20.449C61.5895 17.2733 60.3076 14.2614 58.4802 11.5851L75.2845 0.0600535Z" stroke="#48C287" stroke-width="290" mask="url(#path-1-inside-1_105_4542)"/>
</svg>
