<svg width="341" height="340" viewBox="0 0 341 340" fill="none" xmlns="http://www.w3.org/2000/svg">
<path d="M252.716 3.36319C256.077 0.00190795 261.359 -0.552402 265.201 2.24581C285.199 16.8078 302.041 35.3153 314.668 56.6535C328.682 80.3379 337.137 106.891 339.393 134.308C341.65 161.725 337.649 189.29 327.693 214.922C317.737 240.554 302.086 263.583 281.922 282.271C265.09 299.79 244.968 313.816 222.706 323.551C200.443 333.285 176.477 338.536 152.175 339.003C127.873 339.471 103.712 335.146 81.0718 326.276C58.4319 317.405 37.7567 304.163 20.2271 287.306C13.4657 280.571 7.28753 273.281 1.75642 265.516C-0.973081 261.684 -0.389518 256.469 2.93721 253.142L252.716 3.36319Z" fill="#EE7373"/>
</svg>
