<svg width="29" height="27" viewBox="0 0 29 27" fill="none" xmlns="http://www.w3.org/2000/svg">
<g clip-path="url(#clip0_105_4533)">
<path fill-rule="evenodd" clip-rule="evenodd" d="M6.42559 15.5312C6.00813 15.5675 5.59671 15.5871 5.18674 15.5881C4.57176 15.5899 3.95873 15.5089 3.34639 15.4779C3.0866 15.4649 2.40843 15.4416 2.31225 15.4213C1.47446 15.2399 1.3998 14.5459 1.39274 14.3441C1.38663 14.2463 1.35544 13.2442 2.47411 13.1185C3.84197 12.9638 5.2047 12.9886 6.52544 13.1884C7.67211 13.0621 8.8265 12.7814 9.88404 12.3731C14.0902 10.7484 14.7824 7.06381 15.069 3.03453C15.1095 2.41457 15.6368 1.93945 16.2549 1.95653C16.8776 1.97398 17.3774 2.47808 17.3834 3.09898C17.42 5.36703 18.9039 9.50512 20.6719 11.0367C21.0421 11.3571 21.9773 11.6013 22.8897 11.8982C24.1559 12.3121 25.4036 12.7836 25.9072 13.24C25.9855 13.3088 26.7765 14.1311 26.8833 14.3661C27.1361 14.9304 26.93 15.3494 26.7529 15.5824C26.5758 15.8155 26.2434 16.0688 25.7208 16.1385C25.1746 16.2115 24.081 16.0249 23.8435 16.024C22.9821 16.0209 21.2884 16.057 19.8164 16.2904C19.0238 16.4162 18.2903 16.5594 17.9072 16.8631C16.4894 17.9872 16.5257 19.9697 16.61 21.6435C16.6179 21.8355 16.6304 22.028 16.6383 22.2196C16.7831 22.9099 16.8736 23.6377 16.9007 24.4015C16.943 25.5549 15.8774 25.6583 15.8072 25.6629C15.6527 25.6719 14.8596 25.6878 14.6142 24.8013C14.5893 24.7047 14.4923 23.9992 14.4536 23.7273C14.4002 23.3485 14.3657 22.9671 14.3359 22.5846C13.4369 18.5863 10.2011 16.1938 6.42559 15.5312ZM10.74 14.5305C13.9036 13.3027 15.5549 11.1861 16.4343 8.59068L16.4342 8.59113C17.1667 10.3147 18.1287 11.9063 19.1522 12.7911C19.5397 13.1269 20.3458 13.4712 21.2559 13.7963C20.3795 13.8624 19.4438 13.9716 18.6376 14.1504C17.7177 14.3536 16.9428 14.6644 16.4653 15.0424C15.5449 15.7724 14.9877 16.7365 14.665 17.7953C13.6256 16.4132 12.2789 15.3202 10.74 14.5305Z" fill="#1C2B32"/>
</g>
<defs>
<clipPath id="clip0_105_4533">
<rect width="24" height="26" fill="white" transform="translate(0.543457 24.7633) rotate(-85.4042)"/>
</clipPath>
</defs>
</svg>
